<?xml version="1.0" encoding="UTF-8"?>
<svg id="Livello_1" data-name="Livello 1" xmlns="http://www.w3.org/2000/svg" width="64" height="64" viewBox="0 0 64 64">
  <defs>
    <style>
      .cls-1 {
        fill: currentColor;
      }
    </style>
  </defs>
  <path class="cls-1" d="M49.43,95.81c1.5,1.84,2.12,4.01.86,6.09-.97,1.6-3.38,2.44-5.5,1.49-1.84-.82-2.97-2.97-2.41-5.08s2.58-3.57,5.12-3.2c1.02-.85,2.31-2.09,2.38-3.52l.3-5.81c.78-1.92,2.7-3.22,3.98-5.09-.78-.48-1.81-.25-2.75-.37l-.17-4.23-5.82-.07-6.09,6.62c1.47,2.68.74,5.47-1.75,6.63-2.24,1.05-5.21.17-6.11-2.42-.64-1.84.06-3.49,1.22-4.73,1.26-1.35,3.31-1.14,5.06-.82l6.76-6.92,6.55-.36.14-5.7-27.56.03c-.53,1.94-1.72,3.09-2.98,3.74-1.73.89-3.63.89-5.11-.22-2.1-1.58-3.03-3.86-2.14-6.33.72-2.01,2.73-3.65,5.22-3.5,2.2.13,4.39,1.6,5.06,4.29l27.36.03.09-5.5-6.67-.21-6.78-7.08c-1.9.41-4.28.53-5.66-1.49-1.12-1.64-1.12-4.19.62-5.8,1.52-1.42,3.97-1.56,5.72-.17s2.23,3.71.84,5.92l6.04,6.76,5.87-.03.32-3.67c.06-.7,1.89-.48,2.56-.44l-4.04-6.03-.4-8.49c-.07-1.53-1.36-2.76-2.19-4.14-2.37.26-4.14-.95-4.9-2.85-.84-2.12.27-4.34,1.99-5.27,2.09-1.14,4.54-.39,5.68,1.19,1.4,1.94,1.02,4.53-.89,6.05l2.07,3.97.46,8.93c.83,2.44,3.14,4.42,4.72,6.37.5.61,2.07.26,2.76.03V16.1c-1.64-1.47-2.84-3.67-4.77-4.75-1.78-.92-4.48-.16-6.44-.16l-19.26,15.33-.14,10.77-9.32,8.92-.09,13.02c0,.79-.28,1.15-.94,1.15-.61,0-.97-.36-.96-1.16l.16-13.74,9.21-8.98.07-9.58c0-1.1.73-1.92,1.54-2.57l3.23-2.62,6.33-4.95c2.31-1.81,4.73-3.42,6.88-5.63l2.81-1.85c2.46-.01,5.39-.56,7.7.14l5.89,6.02v38.91c1.99.23,3.67.26,5.54-.04l.03-38.99,5.8-6,7.89-.09,18.03,14.36c.95.76,2.55,1.51,2.58,2.85l.21,10.07,9.21,9.1.2,16.34c2.21.99,4.15,2.53,4.26,5.2s-1.95,4.4-4.19,5.51l-.34,16.61-9.02,8.66-.13,6.81c-.02,1.05,0,2.41-.95,3.12l-14.76,10.97-5.28.08c-3.07.05-4.15-1.34-6.81-4.03l-4.16-4.2-.31-6.21-4.79-4.82-1.5,1.86c-.73.91-2.42,1.59-2.93,2.82l-.4,6.42-8.9,8.15-7.55-.05-13.76-9.78c-.9-.64-2.24-1.34-2.26-2.56l-.14-8.45-8.24-7.6c-.66-.61-1.11-1.33-1.1-2.33l.02-14.11c.67-.19,1.19-.18,1.82-.06l.09,14.61,9.32,8.76.1,8.95,14.96,10.67,5.99.03,7.71-7.04.32-5.81c1.04-2.39,3.53-3.67,5.23-5.67l.06-18.05h-6.3s-5.05,6.18-5.05,6.18l.08,5.99-2.31,3.2ZM76.94,58.81l5.75-.08,5.9-6.7c-1.23-2.31-.73-4.71,1.17-6.12,1.64-1.22,3.85-1.08,5.51.38s1.87,3.95.57,5.68-3.5,2.41-5.75,1.4l-6.73,7.38-6.48.09.06,5.55,27.41-.08c.54-2.38,2.12-3.62,4.23-4.27l-.03-15.93-9.26-8.68-.12-10.91-19.24-15.34c-6.89-.89-7.04-.02-11.32,4.94l.03,38.25c.92.29,2.5.56,3.03-.17,1.49-2.03,3.58-3.93,4.53-6.28,1.07-2.64.02-5.83.44-8.57l2.2-4.11c-1.44-1.26-2.27-3.06-1.74-4.74.57-1.8,2.02-2.99,3.75-3.19,1.87-.22,3.64.61,4.6,2.38.79,1.47.3,3.36-.51,4.46-1.03,1.4-2.59,1.84-4.31,1.88-.65,1.21-1.93,2.27-1.99,3.61l-.38,8.61-4.12,6.06c.66.32,1.59.31,2.43.48l.35,4.03ZM45.49,29.27c-1.62.75-1.67,2.54-1.12,3.54.74,1.34,2.1,1.6,3.13,1.18,1.54-.62,1.92-2.18,1.39-3.42s-1.97-1.96-3.41-1.3ZM80.34,29.34c-1.5.67-2,2.42-.93,3.81.66.86,2.15,1.52,3.14.86,1.31-.88,1.84-2.16,1.3-3.34-.63-1.37-2.06-1.98-3.51-1.33ZM34.75,47.12c-1.6.67-2,2.37-1.37,3.61s1.95,1.71,3.31,1.11c1.14-.51,2.05-1.91,1.31-3.37-.48-.96-1.79-1.97-3.26-1.35ZM91.37,47.07c-1.59.62-2.03,2.36-1.34,3.64.59,1.1,1.83,1.72,3.29,1.11,1.07-.45,1.94-1.87,1.3-3.28-.47-1.03-1.7-2.06-3.24-1.46ZM74.91,78.26v-21.79s-21.69.09-21.69.09l-.04,21.93,21.73-.23ZM17.69,64.04c-2.13.39-3.13,2.56-2.49,4.42.55,1.6,2.17,2.62,4.02,2.16,1.71-.42,3.06-2.13,2.6-4.05-.39-1.6-2.04-2.91-4.12-2.52ZM108.71,64.03c-2.17.5-2.83,2.74-2.36,4.31.56,1.85,2.4,2.65,3.98,2.28,1.98-.47,3.05-2.34,2.57-4.18-.43-1.63-2.17-2.88-4.19-2.41ZM76.47,92.16l-.23-5.5c-1.23-2.34-3.25-4.17-4.93-6.23-2.21.03-4.13-.25-6.17.23l.04,17.85,5.68,5.22.14,6.31,7.8,6.93,6.12-.03,14.33-10.64.09-8.99,9.26-8.73.07-16.04c-2.3-.43-3.72-1.87-4.28-4.18l-17.63-.18-9.82.15-.07,5.83,6.69.05,6.58,7.2c2.34-.96,4.65-.15,5.8,1.62,1.27,1.96.74,4.33-.85,5.63-1.86,1.52-4.33,1.34-5.86-.15-1.57-1.52-1.76-3.86-.48-5.83l-6-6.52-5.8-.12-.13,4.09c-.84.41-1.84.29-2.86.32l4.09,5.55.38,5.86c.08,1.27,1.34,2.25,2.1,3.31,2.41-.42,4.39.67,5.11,2.7.66,1.85.05,3.96-1.73,5.13-2.07,1.36-4.57.79-5.93-.94-1.5-1.9-1.09-4.51.78-6.15-.71-1.32-2.22-2.22-2.29-3.75ZM34.7,82.95c-1.61.59-1.95,2.38-1.3,3.62.58,1.11,1.95,1.67,3.31,1.13,1.14-.45,1.98-1.93,1.27-3.36-.46-.93-1.78-1.92-3.28-1.38ZM91.39,82.94c-1.59.6-2.02,2.37-1.37,3.64.55,1.07,1.86,1.72,3.34,1.12,1.02-.42,1.85-1.85,1.24-3.31-.41-.97-1.7-2.03-3.21-1.46ZM45.49,97.15c-1.51.74-1.69,2.47-1.12,3.46.76,1.3,2.17,1.73,3.36,1.15,1.3-.64,1.82-2.04,1.3-3.14-.62-1.33-2.03-2.22-3.55-1.47ZM80.2,97.22c-1.54.81-1.64,2.59-.76,3.78.74.99,2.15,1.28,3.23.63,1.31-.79,1.76-2.17,1.09-3.41s-2.14-1.74-3.57-1Z"/>
</svg>