<?xml version="1.0" encoding="UTF-8"?>
<svg id="Livello_1" data-name="Livello 1" xmlns="http://www.w3.org/2000/svg" width="64" height="64" viewBox="0 0 64 64">
  <defs>
    <style>
      .cls-1 {
        fill: currentColor;
      }
    </style>
  </defs>
  <path class="cls-1" d="M95.29,92.58c.83-.49,1.34-.42,1.73.07.36.46.44,1.14-.23,1.53l-15.81,9.35c-3.43,2.03-6.6,4.04-10.31,5.89,1.31,3.57.49,6.98-2.41,9.13-2.56,1.89-6.41,2.05-8.95-.15s-3.61-5.78-1.97-9.11c-4.56-2.36-8.79-4.92-13.28-7.54l-5.18-3.03c-2.7-1.58-5.06-3.27-7.8-4.72-.64-.34.4-2.23,1.07-1.84l26.26,15.51c1.41-1.53,2.88-2.28,4.91-2.65-.5-2.27-.5-4.34-.16-6.48.43-.22,1.77-.11,1.76.38l-.07,6.11c1.91.47,3.36,1.33,4.86,2.73l25.59-15.17ZM62.08,107.64c-2.91,1.09-4.13,4.34-3.17,6.7,1.14,2.8,4.15,4.07,6.63,3.16,2.82-1.03,4.2-3.94,3.41-6.41-.94-2.97-3.79-4.61-6.88-3.45Z"/>
  <path class="cls-1" d="M62.23,50.98c-.63.42-1.13.7-1.56.72-.87.05-.92-.65-1-1.25-.23-1.58,2.1-.97,3.45-2.12l-.09-24.94c-3.21-.75-5.44-2.74-6.17-5.33-.95-3.38.16-6.07,2.75-8.22.91-.76,1.57-.96,2.85-1.14,4.18-.58,7.93,1.86,8.69,5.86s-1.81,7.96-6.12,8.78l-.17,25.71c1.2.07,2.31-.06,3.22.37-.04,3.33-3.82.21-5.85,1.55ZM62.48,10.93c-3.1.96-4.66,4.05-3.44,6.9,1.01,2.37,3.72,4.01,6.49,3.04,2.48-.87,4.34-3.72,3.45-6.4s-3.48-4.47-6.5-3.54Z"/>
  <path class="cls-1" d="M106.04,79.16c0,.61-1.19.62-1.39.44s-.58-.42-.58-1.02v-30.56c-3.39-.52-5.62-3.12-6.19-5.79-.73-3.38.98-6.4,3.41-7.78,3.14-1.78,6.68-1.36,9.08,1.06,2.03,2.05,2.89,4.87,1.92,7.54-.92,2.53-3.03,4.57-6.17,5.02l-.07,31.09ZM104.01,35.63c-3.14.73-4.84,3.92-3.86,6.63.92,2.54,3.59,4.28,6.37,3.56s4.49-3.49,3.82-6.44c-.56-2.48-3.33-4.45-6.33-3.76Z"/>
  <path class="cls-1" d="M21.61,79.36v-31.36c-1.35-.46-2.7-.62-3.67-1.53-2.58-2.43-3.35-6.05-1.8-9.17s5.15-4.72,8.69-3.66c3.15.94,5.53,3.88,5.32,7.58-.19,3.28-2.63,6.25-6.44,6.78v31.33c-.59.14-1,.24-2.1.02ZM21.68,35.62c-3.11.71-4.88,3.83-3.9,6.68.83,2.41,3.45,4.37,6.34,3.51,2.43-.72,4.56-3.42,3.8-6.25-.67-2.48-3.2-4.64-6.24-3.95Z"/>
  <path class="cls-1" d="M65.09,72.56l-.34,2.97c-.34.6-1.67.4-1.67-.22s.31-2.11-.28-2.56c-1.83-.7-3.53-1.31-4.81-2.9-.71-.03-1.3-.06-1.94-.4l.65-2.33c-.29-1.86-.12-3.19.24-4.96-.71-1.51-2.95-1.24-2.2-2.67.19-.36.62-.94,1.18-.58l2.12,1.37c1.31-1.43,2.71-2.19,4.58-2.74.94-.27.06-3.24.68-3.43.33-.1.96-.14,1.23-.01.75.35-.03,3.03.76,3.35,1.86.76,3.43,1.38,4.79,3.08,1.05-.53,1.71-1.25,2.85-1.51.51-.12.93.59.87,1.03-.13,1.05-2.64,1.43-2.63,2.41,0,.92.72,1.71,1.69,1.65l3.23-.19c.43-.02.53.58.39.92-.51,1.19-2.68.21-4.31.77-.63.21-1.05,1.82-.61,2.25s.72.65.78.99c.09.46-.19.89-.51.94-.28.04-1.07-.35-1.45-.32-1.24,1.31-3.01,3-5.27,3.09ZM62.11,60.1c-3.09,1.14-4.09,4.36-3.22,6.74,1.1,3.01,4.17,4.24,6.83,3.27,2.85-1.04,4.24-3.96,3.34-6.66s-3.93-4.47-6.95-3.35Z"/>
  <path class="cls-1" d="M109.2,82.29c3.12,1.97,4.36,6.02,2.79,9.22s-5.1,5.09-8.53,4.19c-3.39-.88-5.81-4.07-5.67-7.67s3.05-6.47,7.02-7.09c1.33-.2,3.11.53,4.39,1.35ZM103.29,83.64c-3.02,1.32-4.09,4.62-2.79,7.08s4.16,3.71,6.52,2.7c2.82-1.21,4.14-4.2,3.13-6.79s-4.1-4.2-6.86-2.99Z"/>
  <path class="cls-1" d="M20.95,81.31c4.27-1.16,8.17,1.64,9.04,5.58s-1.43,7.69-5.71,8.83c-3.54.94-7.6-1.43-8.67-5.16s1.07-8.08,5.34-9.24ZM20.9,83.6c-3.08,1.17-4.16,4.46-2.83,7.18,1.11,2.26,4.09,3.69,6.55,2.62,2.62-1.13,4.12-4.15,3.14-6.66-1.05-2.67-3.95-4.26-6.86-3.15Z"/>
  <path class="cls-1" d="M32.05,36.19c-.52.31-.98-.25-1.15-.49s-.49-.91-.07-1.16l22.95-14.05c.7-.43,1.18-.65,1.74-.22.35.27.84,1.27.18,1.66l-23.66,14.26Z"/>
  <path class="cls-1" d="M97.49,34.26c.47.28-.28,1.76-.78,1.78l-24.69-14.45c-.44-.53.69-2.12,1.54-1.62l23.94,14.29Z"/>
  <path class="cls-1" d="M95.5,83.98l-17.16-10.09c-.56-.33.45-1.89,1.17-1.47l17.89,10.35c.29.29-.11.99-.34,1.15-.44.3-.94.42-1.56.06Z"/>
  <path class="cls-1" d="M32.78,83.84c-.82.48-1.39.69-1.77.13s-.29-1.26.4-1.66l15.9-9.27c.63-.37,1.34.18,1.44.67.11.53-.08.89-.72,1.27l-15.25,8.87Z"/>
  <path class="cls-1" d="M81.67,55.78c-.72.42-1.5-1.21-.93-1.59,1.42-.94,2.87-1.57,4.16-2.67.57-.48,1.22-.34,1.55.13.4.57.19,1.24-.55,1.67l-4.24,2.46Z"/>
  <path class="cls-1" d="M64.93,95.88c-.04.67-1.04.86-1.78.51-.22-1.19-.14-2.99,0-4.3.21-.4,1.59-.34,1.69.11.28,1.15.18,2.29.09,3.69Z"/>
  <path class="cls-1" d="M90.04,50.84c-.55.35-1-.12-1.18-.37-.16-.22-.44-.81-.06-1.06l2.36-1.59c.5-.34,1.2-.45,1.52-.1.24.27.63,1.05.15,1.35l-2.79,1.77Z"/>
  <path class="cls-1" d="M64.74,88.87c-.07.5-1.6.48-1.65.08-.18-1.46-.19-2.78.03-4.14.07-.42,1.52-.51,1.6-.12.28,1.37.27,2.55.03,4.18Z"/>
  <path class="cls-1" d="M56.88,53.07c-.83.25-1.98,2.1-3.02.89-.27-.31-.22-1.38.33-1.59.98-.38,1.67-.83,2.49-1.46.6-.46,1.2.33,1.2.85,0,.67-.13,1.05-1,1.31Z"/>
  <path class="cls-1" d="M77.79,59.2c1.47-.26,2.79,2.72,2.37,3.78-.17.42-.5.74-1.32.75l-1.06-4.53Z"/>
  <path class="cls-1" d="M39.04,48.9c.19.54-.16,1.19-.65,1.47-.74.43-2.78-.82-2.96-1.56-.1-.42.4-1.42.95-1.16l2.65,1.25Z"/>
  <path class="cls-1" d="M80.64,67.55c-.13.58-.34,1.09-.61,1.27-.38.26-1.02.25-1.53-.02s-.31-2.87.96-2.89c.82-.01,1.45.4,1.18,1.63Z"/>
  <path class="cls-1" d="M33.47,46.07c.2.67-.5,1.19-.84,1.22-.6.05-2.61-.98-2.53-1.62.09-.73.71-1.27,1.56-.91.56.24,1.63.68,1.81,1.31Z"/>
  <path class="cls-1" d="M43.84,51.91c.51.52.15,1.15-.15,1.36-.77.53-2.62-.52-2.78-1.24-.09-.37.32-1.3.75-1.25.8.08,1.59.52,2.18,1.13Z"/>
  <path class="cls-1" d="M97.83,45.74c.15.74-2,1.78-2.55,1.47-.3-.17-.64-.69-.64-1.11.01-.49,1.64-1.42,2.38-1.44.35,0,.68.47.81,1.07Z"/>
  <path class="cls-1" d="M63.14,81.37c-.1-.58-.25-1.73.04-2.4.26-.27,1.36-.26,1.63,0,.36.34.27,1.34.22,1.8-.07.63-.94.94-1.9.6Z"/>
  <path class="cls-1" d="M47.8,54.33c.22.45-.27,1.21-.6,1.32-.5.17-1.18-.22-1.51-.49-.46-.37-.57-1.32-.02-1.85.54-.14,1.85.45,2.13,1.02Z"/>
  <path class="cls-1" d="M52.08,72.6c-.81.2-1.04-.02-1.17-.56-.11-.49,0-.92.52-1.28.39-.26.89-.43,1.19-.36.49.12.8.88.76,1.25-.05.58-.7.79-1.31.94Z"/>
  <path class="cls-1" d="M76.53,56.51c.78-.43,1.39,0,1.64.58s-.03,1.05-.56,1.31c-.58.28-1.15.34-1.56-.28-.28-.43-.38-1.14.48-1.61Z"/>
  <path class="cls-1" d="M50.56,56.47c.49-.42,1.34-.12,1.69.23.41.4.16,1.19-.3,1.65-.35.35-.96.26-1.38,0-.51-.32-.74-1.23,0-1.86Z"/>
  <path class="cls-1" d="M69.51,51.81c-.11-.51.14-1.41.48-1.49.64-.14,1.11.31,1.15.61.06.47-.04.84-.31,1.1-.4.38-1.2.33-1.32-.22Z"/>
  <path class="cls-1" d="M75.1,70.48c.33-.23,1-.11,1.13.18.19.42.09,1.1-.18,1.38-.33.34-1.1.17-1.35-.21s-.08-1.01.41-1.35Z"/>
</svg>