<?xml version="1.0" encoding="UTF-8"?>
<svg id="Livello_1" data-name="Livello 1" xmlns="http://www.w3.org/2000/svg" width="64" height="64" viewBox="0 0 64 64">
  <defs>
    <style>
      .cls-1 {
        fill: currentColor;
      }
    </style>
  </defs>
  <path class="cls-1" d="M60.46,118.63l-11.18-6.48-33.14-19.39v-54.28c0-1.28.62-2.17,1.64-2.65l12.96-8.08,2.23-1.35,29.15-17.78c1.15-.7,2.15-.88,3.35-.15l5.34,2.96,40.96,23.47.03,51.86c0,2.26.24,4.09-.35,6.32l-46.6,26.68c-1.34.77-3.27-.44-4.41-1.13ZM65.14,38.49l22.68,13.35,20.96-16.01L63.95,10.35l-44.43,27.23,20.37,14.31,22.64-13.27c.86-.51,1.68-.59,2.61-.13ZM109.43,90.08l-.09-51.6-19.86,14.97.04,25.3,19.9,11.34ZM38.39,78.66l-.06-25.17-19.87-13.69v50.34s19.93-11.48,19.93-11.48ZM76.14,59.39l9.88-6.36-22.15-12.87-21.88,12.92,9.58,6.34,24.57-.04ZM54.48,84.46l-4.72-2.69v-20.93s-9.4-5.82-9.4-5.82l-.05,23.97,22.1,13.15c.45-1.17.33-2.13.16-3.28-2.9-1.01-5.28-2.8-8.09-4.4ZM65.36,91.89l22.14-12.86-.15-24.02-9.42,5.85-.03,20.9-12.01,6.75c-1.04.59-1.47,2.1-.53,3.38ZM62.6,116.93l.03-22.47-23.38-13.78-19.55,11.43,33.95,19.84,8.96,4.98ZM65,117.11l43.22-25-19.73-11.39-23.57,13.72.07,22.67Z"/>
</svg>