<?xml version="1.0" encoding="UTF-8"?>
<svg id="Livello_1" data-name="Livello 1" xmlns="http://www.w3.org/2000/svg" width="64" height="64" viewBox="0 0 64 64">
  <defs>
    <style>
      .cls-1 {
        fill: currentColor;
      }
    </style>
  </defs>
  <path class="cls-1" d="M101.85,65.37c-1.06-2.32-1.78-4.57-3.56-6.18-2.02-1.83-4.69-1.55-6.51.4s-2.93,4.41-4.05,6.94l-5.61,12.63c-1.53,3.44-4.87,5.79-8.77,5.62-3.73-.16-6.97-2.61-8.51-5.99l-6.49-14.2c-1.11-2.44-3.51-4.37-6.23-3.79-2.51.53-3.77,2.65-4.89,4.69-1.68,3.08-4.76,5.29-8.29,4.44-6-1.44-6.18-9.45-10.21-12.8-2.33-1.93-5.71-.38-6.86,2.15l-2.9,6.41c-2.71,5.99-10.22,4.43-10.82,3.18-.26-.55-.17-.99.15-1.38,1.09-1.32,4.51,2.61,7.9-1.72,2.45-3.12,2.88-9.01,7.44-11.14,3.54-1.65,7.33.2,8.97,3.5l3.48,7.05c.79,1.59,2.49,2.61,4.03,2.75,1.77.16,3.38-.79,4.38-2.32l2.41-3.69c2.29-3.5,6.98-4.62,10.39-2.04,2,1.51,3.3,3.61,4.27,5.89l4.75,11.12c1.19,2.79,3.46,5.19,6.56,5.64,2.89.42,5.59-1.31,6.76-3.74l4-8.26c2.75-5.68,4.6-14.43,11.43-14.75,2.41-.11,4.62,1.29,6.17,3.34,3.36,4.45,3.96,11.75,7.85,13.64,2.34,1.14,4.48-.7,5.83-2.65l.76-1.09c.25-.36,1.74-.38,1.68.13-.48,4.26-4.85,7.09-8.86,5.77-1.89-.62-3.31-2.15-4.1-3.89l-2.57-5.63Z"/>
  <path class="cls-1" d="M76.52,74.57c0,.99-.08,1.35-.39,1.74s-1.67.43-1.67-.21l-.04-37.05c0-.79.53-1.19,1.09-1.2.51,0,.99.49.99,1.25l.02,35.47Z"/>
  <path class="cls-1" d="M53.59,98.97c0,.9-1.98.77-1.98-.12v-32.98c0-.61,1.87-.71,1.98-.24v33.34Z"/>
  <path class="cls-1" d="M70.85,75.64c-1.85-.14-2.22-1.95-2.21-3.67l.16-28.41c0-.63.69-.91,1.02-.9.58.02,1.08.45,1.04,1.26v31.71Z"/>
  <path class="cls-1" d="M47.86,100.78c0,.58-1.1.84-1.33.69s-.68-.28-.68-1.01v-28c0-.95,1.73-1.55,1.95-1.02l.07,29.34Z"/>
  <path class="cls-1" d="M82.1,65.23c0,1.16-1.13,2.26-2.07,2.77l.09-23.27c0-.75.48-1.22,1.04-1.17.47.05,1.03.45,1.03,1.17l-.09,20.49Z"/>
  <path class="cls-1" d="M59.36,94.92c0,1.03-.41,1.33-.95,1.37-.69.05-1.16-.24-1.16-1.09l.05-23.82c.82.56,1.94,1.69,1.95,2.73l.11,20.81Z"/>
  <path class="cls-1" d="M42.18,94.07c0,.81-.95,1-1.35.9-.47-.12-.66-.67-.66-1.4v-18.73c0-.75.53-1.21,1.09-1.15.51.06,1.04.39,1.04,1.15l-.12,19.22Z"/>
  <path class="cls-1" d="M47.85,55.82c0,.83-1.2,1.36-1.96,1.08l-.06-19.92c0-.74.71-1.01,1.15-.9.35.09.9.36.9,1.05l-.03,18.68Z"/>
  <path class="cls-1" d="M42.27,61.53c0,.77-.68,1.23-1.02,1.23-.62,0-1.14-.44-1.13-1.35l.1-15.48c0-.67.38-.73.69-.87.39-.18,1.24,0,1.25.61l.12,15.85Z"/>
  <path class="cls-1" d="M36.78,84.41c0,.97-.59,1.44-1.16,1.45-.53.01-1.09-.44-1.08-1.25l.25-11.99c.6-.54,2,.4,2,1.41l-.02,10.39Z"/>
  <path class="cls-1" d="M65.08,62.98c-.93.07-2.02-.96-2.02-1.96l-.05-7.77c0-.85.49-1.21,1.1-1.2.58,0,1.06.41,1.05,1.21l-.09,9.73Z"/>
  <path class="cls-1" d="M53.67,53.48c0,.96-.43,1.37-.97,1.42-.59.05-1.11-.49-1.11-1.21v-6.94c0-.73.52-1.22,1.11-1.16s.94.39.95,1.18l.03,6.72Z"/>
  <path class="cls-1" d="M64.97,92.15c0,.62-1.8.65-1.81.12l-.14-8.96c1.01.04,1.95.88,1.95,1.74v7.1Z"/>
  <path class="cls-1" d="M87.65,84.69c0,.61-1.19.88-1.9.54-.33-3.19-.84-6.15,1.81-7.64l.09,7.09Z"/>
  <path class="cls-1" d="M87.72,55.09c0,.98-.89,1.82-2.02,1.91l.1-6.86c0-.66,1.89-.42,1.89.4l.02,4.54Z"/>
  <path class="cls-1" d="M76.52,94.14c.02.84-.35,1.16-.58,1.43s-1.31.47-1.31.04l-.12-7.01c0-.48,1.75-.69,1.84-.23l.17,5.77Z"/>
  <path class="cls-1" d="M81.96,92.36c0,.48-1.5.58-1.69.24v-5.89c0-.53.99-1.1,1.74-1.28l-.05,6.93Z"/>
  <path class="cls-1" d="M36.67,57.43c-2.44-.33-2.53-5.59-1.9-7.02.18-.41,1.48-.67,1.79-.28.46,2.24.27,4.36.11,7.3Z"/>
  <path class="cls-1" d="M70.85,91.32c.03,1.01-.46,1.42-1.04,1.44s-1.05-.45-1.04-1.23l.05-3.98c.69-.16,1.91.12,1.93.7l.1,3.06Z"/>
  <path class="cls-1" d="M74.72,26.67c.81-.39,1.62-.15,1.97.56.33.66.27,1.66-.59,2.14-.56.31-1.59.18-2.04-.63-.33-.6-.24-1.65.65-2.07Z"/>
  <path class="cls-1" d="M120,81.96c-.54.36-1.29,1.06-2.27,1.16-.75.07-1.07-.83-1.1-1.31-.06-.86.66-1.61,1.27-1.6.97.01,1.47.5,2.1,1.75Z"/>
  <path class="cls-1" d="M111.02,54.38c.59-.59,1.65-.49,2.22.13.36.39.38,1.37-.18,1.96-.37.39-1.29.52-1.99.02-.52-.37-.79-1.36-.04-2.11Z"/>
  <path class="cls-1" d="M20.9,82.81c.85-.25,1.66.31,1.84.87.27.82-.11,1.59-.79,1.88s-1.57.07-1.83-.51c-.41-.89-.2-1.96.77-2.25Z"/>
  <path class="cls-1" d="M94.23,77.21c.69-.49,1.54-.41,2.03.04s.43,1.65-.13,2.17c-.41.38-1.52.34-2.05-.17-.42-.4-.41-1.63.15-2.04Z"/>
  <path class="cls-1" d="M33.91,41.79c.83-.62,1.8-.09,2.05.52.28.68.04,1.44-.46,1.88-.65.58-1.44.33-1.76-.09-.54-.71-.56-1.76.17-2.31Z"/>
  <path class="cls-1" d="M24.48,73.07c.7-.66,1.64-.46,2.13.13.36.44.37,1.53-.27,2.03-.39.31-1.17.44-1.78.06-.49-.31-.75-1.58-.08-2.22Z"/>
  <path class="cls-1" d="M11.51,44.37c.78-.47,1.59-.13,1.98.57.3.54.05,1.38-.59,1.8-.45.29-1.29.37-1.67-.04-.64-.71-.54-1.84.27-2.33Z"/>
</svg>