<?xml version="1.0" encoding="UTF-8"?>
<svg id="Livello_1" data-name="Livello 1" xmlns="http://www.w3.org/2000/svg" width="64" height="64" viewBox="0 0 64 64">
  <defs>
    <style>
      .cls-1 {
        fill: currentColor;
      }
    </style>
  </defs>
  <path class="cls-1" d="M73.3,13.21c-.43-.21-.03-1.66.34-1.62,1.91.24,3.28,1.22,5,1.86,2.05-2.53,5.56-2.9,8.03-1.16,2.53,1.79,3.33,4.92,1.78,8.03,7.89,7.77,12.05,18.39,11.11,29.6,14.98,9.97,21.05,28.41,14.27,45.27-5.2,11.77-15.31,20-27.94,22.38l-5.12.59c-7.98.08-15.38-2.05-21.88-6.4-10.85,8.17-25.16,7.99-35.87.12-8.54-6.28-13.1-16.48-12.63-26.8.49-10.8,6.64-20.42,16.03-25.77-.7-1.86-1.5-3.36-1.22-5.2.06-.41,1.31-.45,1.54-.06.46,1.54.67,3.03,1.53,4.34,7.48-3.4,15.59-4.16,23.28-1.18,11.77-13.57,29.73-17.37,45.97-8.6.42-10.26-3.41-19.73-10.46-26.73-2.39,1.69-4.97,1.81-7.03.34-2.19-1.56-3.33-4.05-2.49-6.95l-4.26-2.06ZM43.15,78.96c-7.2-4.21-12.71-9.95-16.03-17.59-14.56,8.41-19.11,27.02-9.94,41.21,8.69,13.45,26.5,17.36,40,7.82-9.44-7.63-14.8-19.1-14.03-31.44ZM50.13,58.96c-7.5-2.5-14.69-1.59-21.18,1.49,3.16,6.96,8.05,12.5,14.52,16.11.55-6.86,3.3-12.18,6.66-17.6ZM69.69,83.25c-8.95,1.84-17.01.42-24.58-3.31-.29,11.47,4.76,22.19,13.91,29.15,7.79-6.14,12.07-16.03,10.67-25.84ZM52.2,59.94c-3.95,5.47-6.21,11.29-6.82,17.68,7.38,4.13,15.76,5.34,24.06,3.51-1.93-9.48-8.22-17.38-17.24-21.18ZM97.37,51.06c-9.39-5.71-20.75-6.81-30.79-2.36-5.02,2.2-9.47,5.11-12.84,9.52,9.26,4.35,15.66,12.25,17.72,22.33,13.78-3.83,23.94-15.23,25.91-29.5ZM99.45,52.39l-1.51,5.65c-4.02,12.08-13.62,21.18-26.11,24.67,1.24,10.5-2.59,20.56-10.83,27.64,7.44,5.1,16.23,6.61,25.11,4.94,15.66-3.04,27.55-16.48,28.37-32.6.62-12.08-5.28-23.34-15.02-30.31ZM79.61,18.33c.7,2.24,3.15,3.14,4.79,2.51,2.19-.85,3.14-2.94,2.56-4.8-.65-2.09-2.79-3.16-4.68-2.7-2.12.52-3.38,2.7-2.67,4.99Z"/>
  <path class="cls-1" d="M51.83,10.6c.66-.22.97,1.62.24,1.82l-2.61.74c-1.33.38-2.43,1.6-3.99,1.5-.3-.02-.45-.93-.32-1.19.17-.36.6-.83,1.18-1.03l5.51-1.84Z"/>
  <path class="cls-1" d="M60.46,9.55c.48.08.43,1.71-.02,1.73l-4.27.25c-.56.03-.92-1.52-.5-1.67,1.44-.52,3.1-.6,4.79-.31Z"/>
  <path class="cls-1" d="M38,18.7c-.81-1.67,3.12-3.89,4.04-3.26.31.21.95.83.33,1.26l-3.32,2.35c-.45.32-.93-.09-1.06-.35Z"/>
  <path class="cls-1" d="M69.57,10.26c.36.11.29,1.36-.02,1.71l-4.87-.72c-.75-.11-.85-1.55-.23-1.63,1.67-.21,3.36.16,5.12.64Z"/>
  <path class="cls-1" d="M25.84,46.29l.15,4.37c-.39.14-1.3.15-1.57-.13-.76-3.31-.48-6.1.82-5.2.2.14.59.37.61.96Z"/>
  <path class="cls-1" d="M35.64,21.83l-2.6,3.36c-.37.48-1.74-.12-1.55-.68.5-1.5,1.68-2.72,2.89-3.58.39-.27,1.54.55,1.26.9Z"/>
  <path class="cls-1" d="M29.63,28.29c1.23.18-.05,3.26-1.31,4.78-.3.37-1.53-.17-1.42-.71.39-1.88,1.65-4.23,2.73-4.07Z"/>
  <path class="cls-1" d="M26.97,36.63c.14,1.45-.41,2.82-.79,4.23l-1.55-.24c.05-1.32.41-2.9.91-4.13.19-.17,1.09-.13,1.43.14Z"/>
</svg>