<?xml version="1.0" encoding="UTF-8"?>
<svg id="Livello_1" data-name="Livello 1" xmlns="http://www.w3.org/2000/svg" width="600" height="1080" viewBox="0 0 600 1080">
  <defs>
    <style>
      .cls-1 {
        fill: #00aba8;
      }

      .cls-2 {
        fill: #fff;
      }
    </style>
  </defs>
  <rect class="cls-1" x="-.04" y="240" width="600" height="600"/>
  <path class="cls-2" d="M375.03,332.62h-48.57l-3.71-15.03h-83.85l-3.71,15.03h-48.57c-11.33,0-20.54,9.22-20.54,20.54v114.41c0,11.33,9.22,20.54,20.54,20.54h188.43c11.33,0,20.54-9.22,20.54-20.54v-114.41c0-11.33-9.22-20.54-20.54-20.54h-.02ZM244.71,325h72.21l1.87,7.61h-75.96l1.87-7.61h.01ZM388.15,467.57c0,7.23-5.89,13.12-13.12,13.12h-188.41c-7.23,0-13.12-5.89-13.12-13.12v-114.41c0-7.23,5.89-13.12,13.12-13.12h188.43c7.23,0,13.12,5.89,13.12,13.12v114.41h-.02Z"/>
  <path class="cls-2" d="M280.83,360.37c-27.54,0-49.95,22.41-49.95,49.95s22.41,49.95,49.95,49.95,49.95-22.41,49.95-49.95-22.41-49.95-49.95-49.95ZM280.83,452.95c-23.49,0-42.57-19.08-42.57-42.57s19.08-42.57,42.57-42.57,42.57,19.08,42.57,42.57-19.08,42.57-42.57,42.57Z"/>
  <path class="cls-2" d="M307.82,388.45c0,8.65-7.04,15.64-15.69,15.64s-15.64-6.99-15.64-15.64c0-6.4,3.87-11.94,9.41-14.34-1.69-.22-3.33-.34-5.05-.34-20.23,0-36.64,16.41-36.64,36.61s16.41,36.61,36.64,36.61,36.61-16.41,36.61-36.61c0-9.71-3.78-18.51-9.95-25.06.22,1.03.34,2.06.34,3.14h-.03Z"/>
  <path class="cls-2" d="M288.2,438.83h-14.76c-3.97,0-7.23,3.21-7.23,7.23v8.34c0,3.97,3.26,7.23,7.23,7.23h14.76c4.02,0,7.26-3.26,7.26-7.23v-8.34c0-4.02-3.26-7.23-7.26-7.23Z"/>
</svg>