<?xml version="1.0" encoding="iso-8859-1"?>
<!-- Generator: Adobe Illustrator 27.9.0, SVG Export Plug-In . SVG Version: 6.00 Build 0)  -->
<svg version="1.1" xmlns="http://www.w3.org/2000/svg" xmlns:xlink="http://www.w3.org/1999/xlink" x="0px" y="0px"
	 viewBox="0 0 750 500" style="enable-background:new 0 0 750 500;" xml:space="preserve">
<g id="BACKGROUND" style="display:none;">
	<rect style="display:inline;" width="750" height="500"/>
</g>
<g id="OBJECTS">
	<g>
		<defs>
			<rect id="SVGID_1_" transform="matrix(-1 -1.224647e-16 1.224647e-16 -1 750 500)" width="750" height="500"/>
		</defs>
		<clipPath id="SVGID_00000125583153186755380790000001717339002167130510_">
			<use xlink:href="#SVGID_1_"  style="overflow:visible;"/>
		</clipPath>
		<g style="opacity:0.3;clip-path:url(#SVGID_00000125583153186755380790000001717339002167130510_);">
			<g>
				<rect x="581.875" y="480.375" style="fill:#686084;" width="8.25" height="8.25"/>
				<rect x="573.625" y="488.625" style="fill:#8B7FB0;" width="8.25" height="8.25"/>
				<rect x="565.375" y="496.875" style="fill:#A299C0;" width="8.25" height="8.25"/>
				<rect x="557.375" y="505.125" style="fill:#B9B2D0;" width="8.25" height="8.25"/>
				<rect x="590.125" y="472.125" style="fill:#454058;" width="8.25" height="8.25"/>
				<rect x="598.375" y="463.875" style="fill:#23202C;" width="8.25" height="8.25"/>
			</g>
			<g>
				<rect x="456.875" y="194.875" style="fill:#686084;" width="8.25" height="8.25"/>
				<rect x="448.625" y="203.125" style="fill:#8B7FB0;" width="8.25" height="8.25"/>
				<rect x="440.375" y="211.375" style="fill:#A299C0;" width="8.25" height="8.25"/>
				<rect x="432.375" y="219.625" style="fill:#FC4F32;" width="8.25" height="8.25"/>
				<rect x="465.125" y="186.625" style="fill:#454058;" width="8.25" height="8.25"/>
				<rect x="473.375" y="178.375" style="fill:#23202C;" width="8.25" height="8.25"/>
			</g>
			<g>
				<rect x="319.375" y="82.125" style="fill:#686084;" width="8.25" height="8.25"/>
				<rect x="311.125" y="90.375" style="fill:#8B7FB0;" width="8.25" height="8.25"/>
				<rect x="302.875" y="98.625" style="fill:#A299C0;" width="8.25" height="8.25"/>
				<rect x="294.875" y="106.875" style="fill:#B9B2D0;" width="8.25" height="8.25"/>
				<rect x="327.625" y="73.875" style="fill:#454058;" width="8.25" height="8.25"/>
				<rect x="335.875" y="65.625" style="fill:#23202C;" width="8.25" height="8.25"/>
			</g>
			<g>
				<rect x="227.208" y="315.75" style="fill:#686084;" width="8.25" height="8.25"/>
				<rect x="218.958" y="324" style="fill:#8B7FB0;" width="8.25" height="8.25"/>
				<rect x="210.708" y="332.25" style="fill:#A299C0;" width="8.25" height="8.25"/>
				<rect x="202.708" y="340.5" style="fill:#B9B2D0;" width="8.25" height="8.25"/>
				<rect x="235.458" y="307.5" style="fill:#454058;" width="8.25" height="8.25"/>
				<rect x="243.708" y="299.25" style="fill:#23202C;" width="8.25" height="8.25"/>
			</g>
			<g>
				<rect x="347.375" y="213.75" style="fill:#686084;" width="8.25" height="8.25"/>
				<rect x="339.125" y="222" style="fill:#8B7FB0;" width="8.25" height="8.25"/>
				<rect x="330.875" y="230.25" style="fill:#A299C0;" width="8.25" height="8.25"/>
				<rect x="322.875" y="238.5" style="fill:#B9B2D0;" width="8.25" height="8.25"/>
				<rect x="355.625" y="205.5" style="fill:#454058;" width="8.25" height="8.25"/>
				<rect x="363.875" y="197.25" style="fill:#23202C;" width="8.25" height="8.25"/>
			</g>
			<g>
				<rect x="178.208" y="459.75" style="fill:#686084;" width="8.25" height="8.25"/>
				<rect x="169.958" y="468" style="fill:#8B7FB0;" width="8.25" height="8.25"/>
				<rect x="161.708" y="476.25" style="fill:#A299C0;" width="8.25" height="8.25"/>
				<rect x="153.708" y="484.5" style="fill:#B9B2D0;" width="8.25" height="8.25"/>
				<rect x="186.458" y="451.5" style="fill:#454058;" width="8.25" height="8.25"/>
				<rect x="194.708" y="443.25" style="fill:#23202C;" width="8.25" height="8.25"/>
			</g>
			<g>
				<rect x="270.042" y="474.875" style="fill:#686084;" width="8.25" height="8.25"/>
				<rect x="261.792" y="483.125" style="fill:#8B7FB0;" width="8.25" height="8.25"/>
				<rect x="253.542" y="491.375" style="fill:#A299C0;" width="8.25" height="8.25"/>
				<rect x="245.542" y="499.625" style="fill:#B9B2D0;" width="8.25" height="8.25"/>
				<rect x="278.292" y="466.625" style="fill:#454058;" width="8.25" height="8.25"/>
				<rect x="286.542" y="458.375" style="fill:#23202C;" width="8.25" height="8.25"/>
			</g>
			<g>
				<rect x="22.75" y="430.875" style="fill:#686084;" width="8.25" height="8.25"/>
				<rect x="14.5" y="439.125" style="fill:#8B7FB0;" width="8.25" height="8.25"/>
				<rect x="6.25" y="447.375" style="fill:#A299C0;" width="8.25" height="8.25"/>
				<rect x="-1.75" y="455.625" style="fill:#B9B2D0;" width="8.25" height="8.25"/>
				<rect x="31" y="422.625" style="fill:#454058;" width="8.25" height="8.25"/>
				<rect x="39.25" y="414.375" style="fill:#23202C;" width="8.25" height="8.25"/>
			</g>
			<g>
				<rect x="101.375" y="436.375" style="fill:#686084;" width="8.25" height="8.25"/>
				<rect x="93.125" y="444.625" style="fill:#8B7FB0;" width="8.25" height="8.25"/>
				<rect x="84.875" y="452.875" style="fill:#A299C0;" width="8.25" height="8.25"/>
				<rect x="76.875" y="461.125" style="fill:#FC4F32;" width="8.25" height="8.25"/>
				<rect x="109.625" y="428.125" style="fill:#454058;" width="8.25" height="8.25"/>
				<rect x="117.875" y="419.875" style="fill:#23202C;" width="8.25" height="8.25"/>
			</g>
			<g>
				<rect x="751.208" y="-11.25" style="fill:#686084;" width="8.25" height="8.25"/>
				<rect x="742.958" y="-3" style="fill:#8B7FB0;" width="8.25" height="8.25"/>
				<rect x="734.708" y="5.25" style="fill:#A299C0;" width="8.25" height="8.25"/>
				<rect x="726.708" y="13.5" style="fill:#B9B2D0;" width="8.25" height="8.25"/>
				<rect x="759.458" y="-19.5" style="fill:#454058;" width="8.25" height="8.25"/>
				<rect x="767.708" y="-27.75" style="fill:#23202C;" width="8.25" height="8.25"/>
			</g>
			<g>
				<rect x="129.042" y="9.375" style="fill:#686084;" width="8.25" height="8.25"/>
				<rect x="120.792" y="17.625" style="fill:#8B7FB0;" width="8.25" height="8.25"/>
				<rect x="112.542" y="25.875" style="fill:#A299C0;" width="8.25" height="8.25"/>
				<rect x="104.542" y="34.125" style="fill:#FC4F32;" width="8.25" height="8.25"/>
				<rect x="137.292" y="1.125" style="fill:#454058;" width="8.25" height="8.25"/>
				<rect x="145.542" y="-7.125" style="fill:#23202C;" width="8.25" height="8.25"/>
			</g>
			<g>
				<rect x="653.542" y="215.5" style="fill:#686084;" width="8.25" height="8.25"/>
				<rect x="645.292" y="223.75" style="fill:#8B7FB0;" width="8.25" height="8.25"/>
				<rect x="637.042" y="232" style="fill:#A299C0;" width="8.25" height="8.25"/>
				<rect x="629.042" y="240.25" style="fill:#FC4F32;" width="8.25" height="8.25"/>
				<rect x="661.792" y="207.25" style="fill:#454058;" width="8.25" height="8.25"/>
				<rect x="670.042" y="199" style="fill:#23202C;" width="8.25" height="8.25"/>
			</g>
			<g>
				<rect x="516.542" y="450.125" style="fill:#686084;" width="8.25" height="8.25"/>
				<rect x="508.292" y="458.375" style="fill:#8B7FB0;" width="8.25" height="8.25"/>
				<rect x="500.042" y="466.625" style="fill:#A299C0;" width="8.25" height="8.25"/>
				<rect x="492.042" y="474.875" style="fill:#B9B2D0;" width="8.25" height="8.25"/>
				<rect x="524.792" y="441.875" style="fill:#454058;" width="8.25" height="8.25"/>
				<rect x="533.042" y="433.625" style="fill:#23202C;" width="8.25" height="8.25"/>
			</g>
			<g>
				<rect x="440.208" y="424" style="fill:#686084;" width="8.25" height="8.25"/>
				<rect x="431.958" y="432.25" style="fill:#8B7FB0;" width="8.25" height="8.25"/>
				<rect x="423.708" y="440.5" style="fill:#A299C0;" width="8.25" height="8.25"/>
				<rect x="415.708" y="448.75" style="fill:#B9B2D0;" width="8.25" height="8.25"/>
				<rect x="448.458" y="415.75" style="fill:#454058;" width="8.25" height="8.25"/>
				<rect x="456.708" y="407.5" style="fill:#23202C;" width="8.25" height="8.25"/>
			</g>
			<g>
				<rect x="128.708" y="238.458" style="fill:#686084;" width="8.25" height="8.25"/>
				<rect x="120.458" y="246.708" style="fill:#8B7FB0;" width="8.25" height="8.25"/>
				<rect x="112.208" y="254.958" style="fill:#A299C0;" width="8.25" height="8.25"/>
				<rect x="104.208" y="263.208" style="fill:#B9B2D0;" width="8.25" height="8.25"/>
				<rect x="136.958" y="230.208" style="fill:#454058;" width="8.25" height="8.25"/>
				<rect x="145.208" y="221.958" style="fill:#23202C;" width="8.25" height="8.25"/>
			</g>
			<g>
				<rect x="520.542" y="5.25" style="fill:#686084;" width="8.25" height="8.25"/>
				<rect x="512.292" y="13.5" style="fill:#8B7FB0;" width="8.25" height="8.25"/>
				<rect x="504.042" y="21.75" style="fill:#A299C0;" width="8.25" height="8.25"/>
				<rect x="496.042" y="30" style="fill:#B9B2D0;" width="8.25" height="8.25"/>
				<rect x="528.792" y="-3" style="fill:#454058;" width="8.25" height="8.25"/>
				<rect x="537.042" y="-11.25" style="fill:#23202C;" width="8.25" height="8.25"/>
			</g>
			<g>
				<rect x="90.375" y="321.25" style="fill:#686084;" width="8.25" height="8.25"/>
				<rect x="82.125" y="329.5" style="fill:#8B7FB0;" width="8.25" height="8.25"/>
				<rect x="73.875" y="337.75" style="fill:#A299C0;" width="8.25" height="8.25"/>
				<rect x="65.875" y="346" style="fill:#B9B2D0;" width="8.25" height="8.25"/>
				<rect x="98.625" y="313" style="fill:#454058;" width="8.25" height="8.25"/>
				<rect x="106.875" y="304.75" style="fill:#23202C;" width="8.25" height="8.25"/>
			</g>
		</g>
		<g style="clip-path:url(#SVGID_00000125583153186755380790000001717339002167130510_);">
			<g>
				<rect x="427.042" y="142" style="fill:#686084;" width="11" height="11"/>
				<rect x="416.042" y="153" style="fill:#8B7FB0;" width="11" height="11"/>
				<rect x="405.042" y="164" style="fill:#A299C0;" width="11" height="11"/>
				<rect x="394.375" y="175" style="fill:#B9B2D0;" width="11" height="11"/>
				<rect x="438.042" y="131" style="fill:#454058;" width="11" height="11"/>
				<rect x="449.042" y="120" style="fill:#23202C;" width="11" height="11"/>
			</g>
			<g>
				<rect x="432.708" y="73.875" style="fill:#686084;" width="11" height="11"/>
				<rect x="421.708" y="84.875" style="fill:#8B7FB0;" width="11" height="11"/>
				<rect x="410.708" y="95.875" style="fill:#A299C0;" width="11" height="11"/>
				<rect x="400.042" y="106.875" style="fill:#FC4F32;" width="11" height="11"/>
				<rect x="443.708" y="62.875" style="fill:#454058;" width="11" height="11"/>
				<rect x="454.708" y="51.875" style="fill:#23202C;" width="11" height="11"/>
			</g>
			<g>
				<rect x="484.167" y="-17.125" style="fill:#686084;" width="11" height="11"/>
				<rect x="473.167" y="-6.125" style="fill:#8B7FB0;" width="11" height="11"/>
				<rect x="462.167" y="4.875" style="fill:#A299C0;" width="11" height="11"/>
				<rect x="451.5" y="15.875" style="fill:#B9B2D0;" width="11" height="11"/>
				<rect x="495.167" y="-28.125" style="fill:#454058;" width="11" height="11"/>
				<rect x="506.167" y="-39.125" style="fill:#23202C;" width="11" height="11"/>
			</g>
			<g>
				<rect x="680" y="-3" style="fill:#686084;" width="11" height="11"/>
				<rect x="669" y="8" style="fill:#8B7FB0;" width="11" height="11"/>
				<rect x="658" y="19" style="fill:#A299C0;" width="11" height="11"/>
				<rect x="647.333" y="30" style="fill:#FC4F32;" width="11" height="11"/>
				<rect x="691" y="-14" style="fill:#454058;" width="11" height="11"/>
				<rect x="702" y="-25" style="fill:#23202C;" width="11" height="11"/>
			</g>
			<g>
				<rect x="506" y="117.5" style="fill:#686084;" width="11" height="11"/>
				<rect x="495" y="128.5" style="fill:#8B7FB0;" width="11" height="11"/>
				<rect x="484" y="139.5" style="fill:#A299C0;" width="11" height="11"/>
				<rect x="473.333" y="150.5" style="fill:#B9B2D0;" width="11" height="11"/>
				<rect x="517" y="106.5" style="fill:#454058;" width="11" height="11"/>
				<rect x="528" y="95.5" style="fill:#23202C;" width="11" height="11"/>
			</g>
			<g>
				<rect x="527.833" y="41" style="fill:#686084;" width="11" height="11"/>
				<rect x="516.833" y="52" style="fill:#8B7FB0;" width="11" height="11"/>
				<rect x="505.833" y="63" style="fill:#A299C0;" width="11" height="11"/>
				<rect x="495.167" y="74" style="fill:#B9B2D0;" width="11" height="11"/>
				<rect x="538.833" y="30" style="fill:#454058;" width="11" height="11"/>
				<rect x="549.833" y="19" style="fill:#23202C;" width="11" height="11"/>
			</g>
			<g>
				<rect x="571.5" y="109" style="fill:#686084;" width="11" height="11"/>
				<rect x="560.5" y="120" style="fill:#8B7FB0;" width="11" height="11"/>
				<rect x="549.5" y="131" style="fill:#A299C0;" width="11" height="11"/>
				<rect x="538.833" y="142" style="fill:#B9B2D0;" width="11" height="11"/>
				<rect x="582.5" y="98" style="fill:#454058;" width="11" height="11"/>
				<rect x="593.5" y="87" style="fill:#23202C;" width="11" height="11"/>
			</g>
			<g>
				<rect x="582.333" y="164" style="fill:#686084;" width="11" height="11"/>
				<rect x="571.333" y="175" style="fill:#8B7FB0;" width="11" height="11"/>
				<rect x="560.333" y="186" style="fill:#A299C0;" width="11" height="11"/>
				<rect x="549.667" y="197" style="fill:#FC4F32;" width="11" height="11"/>
				<rect x="593.333" y="153" style="fill:#454058;" width="11" height="11"/>
				<rect x="604.333" y="142" style="fill:#23202C;" width="11" height="11"/>
			</g>
			<g>
				<rect x="724" y="145" style="fill:#686084;" width="11" height="11"/>
				<rect x="713" y="156" style="fill:#8B7FB0;" width="11" height="11"/>
				<rect x="702" y="167" style="fill:#A299C0;" width="11" height="11"/>
				<rect x="691.333" y="178" style="fill:#B9B2D0;" width="11" height="11"/>
				<rect x="735" y="134" style="fill:#454058;" width="11" height="11"/>
				<rect x="746" y="123" style="fill:#23202C;" width="11" height="11"/>
			</g>
			<g>
				<rect x="659" y="145" style="fill:#686084;" width="11" height="11"/>
				<rect x="648" y="156" style="fill:#8B7FB0;" width="11" height="11"/>
				<rect x="637" y="167" style="fill:#A299C0;" width="11" height="11"/>
				<rect x="626.333" y="178" style="fill:#B9B2D0;" width="11" height="11"/>
				<rect x="670" y="134" style="fill:#454058;" width="11" height="11"/>
				<rect x="681" y="123" style="fill:#23202C;" width="11" height="11"/>
			</g>
			<g>
				<rect x="751.333" y="46.083" style="fill:#686084;" width="11" height="11"/>
				<rect x="740.333" y="57.083" style="fill:#8B7FB0;" width="11" height="11"/>
				<rect x="729.333" y="68.083" style="fill:#A299C0;" width="11" height="11"/>
				<rect x="718.667" y="79.083" style="fill:#B9B2D0;" width="11" height="11"/>
				<rect x="762.333" y="35.083" style="fill:#454058;" width="11" height="11"/>
				<rect x="773.333" y="24.083" style="fill:#23202C;" width="11" height="11"/>
			</g>
			<g>
				<rect x="680.5" y="62.875" style="fill:#686084;" width="11" height="11"/>
				<rect x="669.5" y="73.875" style="fill:#8B7FB0;" width="11" height="11"/>
				<rect x="658.5" y="84.875" style="fill:#A299C0;" width="11" height="11"/>
				<rect x="647.833" y="95.875" style="fill:#B9B2D0;" width="11" height="11"/>
				<rect x="691.5" y="51.875" style="fill:#454058;" width="11" height="11"/>
				<rect x="702.5" y="40.875" style="fill:#23202C;" width="11" height="11"/>
			</g>
			<g>
				<rect x="598.833" y="24.5" style="fill:#686084;" width="11" height="11"/>
				<rect x="587.833" y="35.5" style="fill:#8B7FB0;" width="11" height="11"/>
				<rect x="576.833" y="46.5" style="fill:#A299C0;" width="11" height="11"/>
				<rect x="566.167" y="57.5" style="fill:#B9B2D0;" width="11" height="11"/>
				<rect x="609.833" y="13.5" style="fill:#454058;" width="11" height="11"/>
				<rect x="620.833" y="2.5" style="fill:#23202C;" width="11" height="11"/>
			</g>
			<g>
				<rect x="391" y="43" style="fill:#686084;" width="11" height="11"/>
				<rect x="380" y="54" style="fill:#8B7FB0;" width="11" height="11"/>
				<rect x="369" y="65" style="fill:#A299C0;" width="11" height="11"/>
				<rect x="358.333" y="76" style="fill:#B9B2D0;" width="11" height="11"/>
				<rect x="402" y="32" style="fill:#454058;" width="11" height="11"/>
				<rect x="413" y="21" style="fill:#23202C;" width="11" height="11"/>
			</g>
			<g>
				<rect x="47.167" y="134" style="fill:#686084;" width="11" height="11"/>
				<rect x="36.167" y="145" style="fill:#8B7FB0;" width="11" height="11"/>
				<rect x="25.167" y="156" style="fill:#A299C0;" width="11" height="11"/>
				<rect x="14.5" y="167" style="fill:#B9B2D0;" width="11" height="11"/>
				<rect x="58.167" y="123" style="fill:#454058;" width="11" height="11"/>
				<rect x="69.167" y="112" style="fill:#23202C;" width="11" height="11"/>
			</g>
			<g>
				<rect x="44.875" y="73.875" style="fill:#686084;" width="11" height="11"/>
				<rect x="33.875" y="84.875" style="fill:#8B7FB0;" width="11" height="11"/>
				<rect x="22.875" y="95.875" style="fill:#A299C0;" width="11" height="11"/>
				<rect x="12.208" y="106.875" style="fill:#B9B2D0;" width="11" height="11"/>
				<rect x="55.875" y="62.875" style="fill:#454058;" width="11" height="11"/>
				<rect x="66.875" y="51.875" style="fill:#23202C;" width="11" height="11"/>
			</g>
			<g>
				<rect x="96.333" y="-17.125" style="fill:#686084;" width="11" height="11"/>
				<rect x="85.333" y="-6.125" style="fill:#8B7FB0;" width="11" height="11"/>
				<rect x="74.333" y="4.875" style="fill:#A299C0;" width="11" height="11"/>
				<rect x="63.667" y="15.875" style="fill:#B9B2D0;" width="11" height="11"/>
				<rect x="107.333" y="-28.125" style="fill:#454058;" width="11" height="11"/>
				<rect x="118.333" y="-39.125" style="fill:#23202C;" width="11" height="11"/>
			</g>
			<g>
				<rect x="292.167" y="-3" style="fill:#686084;" width="11" height="11"/>
				<rect x="281.167" y="8" style="fill:#8B7FB0;" width="11" height="11"/>
				<rect x="270.167" y="19" style="fill:#A299C0;" width="11" height="11"/>
				<rect x="259.5" y="30" style="fill:#FC4F32;" width="11" height="11"/>
				<rect x="303.167" y="-14" style="fill:#454058;" width="11" height="11"/>
				<rect x="314.167" y="-25" style="fill:#23202C;" width="11" height="11"/>
			</g>
			<g>
				<rect x="118.167" y="117.5" style="fill:#686084;" width="11" height="11"/>
				<rect x="107.167" y="128.5" style="fill:#8B7FB0;" width="11" height="11"/>
				<rect x="96.167" y="139.5" style="fill:#A299C0;" width="11" height="11"/>
				<rect x="85.5" y="150.5" style="fill:#FC4F32;" width="11" height="11"/>
				<rect x="129.167" y="106.5" style="fill:#454058;" width="11" height="11"/>
				<rect x="140.167" y="95.5" style="fill:#23202C;" width="11" height="11"/>
			</g>
			<g>
				<rect x="140" y="41" style="fill:#686084;" width="11" height="11"/>
				<rect x="129" y="52" style="fill:#8B7FB0;" width="11" height="11"/>
				<rect x="118" y="63" style="fill:#A299C0;" width="11" height="11"/>
				<rect x="107.333" y="74" style="fill:#B9B2D0;" width="11" height="11"/>
				<rect x="151" y="30" style="fill:#454058;" width="11" height="11"/>
				<rect x="162" y="19" style="fill:#23202C;" width="11" height="11"/>
			</g>
			<g>
				<rect x="183.667" y="109" style="fill:#686084;" width="11" height="11"/>
				<rect x="172.667" y="120" style="fill:#8B7FB0;" width="11" height="11"/>
				<rect x="161.667" y="131" style="fill:#A299C0;" width="11" height="11"/>
				<rect x="151" y="142" style="fill:#B9B2D0;" width="11" height="11"/>
				<rect x="194.667" y="98" style="fill:#454058;" width="11" height="11"/>
				<rect x="205.667" y="87" style="fill:#23202C;" width="11" height="11"/>
			</g>
			<g>
				<rect x="200" y="150.5" style="fill:#686084;" width="11" height="11"/>
				<rect x="189" y="161.5" style="fill:#8B7FB0;" width="11" height="11"/>
				<rect x="178" y="172.5" style="fill:#A299C0;" width="11" height="11"/>
				<rect x="167.333" y="183.5" style="fill:#B9B2D0;" width="11" height="11"/>
				<rect x="211" y="139.5" style="fill:#454058;" width="11" height="11"/>
				<rect x="222" y="128.5" style="fill:#23202C;" width="11" height="11"/>
			</g>
			<g>
				<rect x="336.167" y="145" style="fill:#686084;" width="11" height="11"/>
				<rect x="325.167" y="156" style="fill:#8B7FB0;" width="11" height="11"/>
				<rect x="314.167" y="167" style="fill:#A299C0;" width="11" height="11"/>
				<rect x="303.5" y="178" style="fill:#B9B2D0;" width="11" height="11"/>
				<rect x="347.167" y="134" style="fill:#454058;" width="11" height="11"/>
				<rect x="358.167" y="123" style="fill:#23202C;" width="11" height="11"/>
			</g>
			<g>
				<rect x="254.5" y="158.5" style="fill:#686084;" width="11" height="11"/>
				<rect x="243.5" y="169.5" style="fill:#8B7FB0;" width="11" height="11"/>
				<rect x="232.5" y="180.5" style="fill:#A299C0;" width="11" height="11"/>
				<rect x="221.833" y="191.5" style="fill:#FC4F32;" width="11" height="11"/>
				<rect x="265.5" y="147.5" style="fill:#454058;" width="11" height="11"/>
				<rect x="276.5" y="136.5" style="fill:#23202C;" width="11" height="11"/>
			</g>
			<g>
				<rect x="385.333" y="-3" style="fill:#686084;" width="11" height="11"/>
				<rect x="374.333" y="8" style="fill:#8B7FB0;" width="11" height="11"/>
				<rect x="363.333" y="19" style="fill:#A299C0;" width="11" height="11"/>
				<rect x="352.667" y="30" style="fill:#B9B2D0;" width="11" height="11"/>
				<rect x="396.333" y="-14" style="fill:#454058;" width="11" height="11"/>
				<rect x="407.333" y="-25" style="fill:#23202C;" width="11" height="11"/>
			</g>
			<g>
				<rect x="292.667" y="62.875" style="fill:#686084;" width="11" height="11"/>
				<rect x="281.667" y="73.875" style="fill:#8B7FB0;" width="11" height="11"/>
				<rect x="270.667" y="84.875" style="fill:#A299C0;" width="11" height="11"/>
				<rect x="260" y="95.875" style="fill:#B9B2D0;" width="11" height="11"/>
				<rect x="303.667" y="51.875" style="fill:#454058;" width="11" height="11"/>
				<rect x="314.667" y="40.875" style="fill:#23202C;" width="11" height="11"/>
			</g>
			<g>
				<rect x="211" y="24.5" style="fill:#686084;" width="11" height="11"/>
				<rect x="200" y="35.5" style="fill:#8B7FB0;" width="11" height="11"/>
				<rect x="189" y="46.5" style="fill:#A299C0;" width="11" height="11"/>
				<rect x="178.333" y="57.5" style="fill:#B9B2D0;" width="11" height="11"/>
				<rect x="222" y="13.5" style="fill:#454058;" width="11" height="11"/>
				<rect x="233" y="2.5" style="fill:#23202C;" width="11" height="11"/>
			</g>
			<g>
				<rect x="3.167" y="43" style="fill:#686084;" width="11" height="11"/>
				<rect x="-7.833" y="54" style="fill:#8B7FB0;" width="11" height="11"/>
				<rect x="-18.833" y="65" style="fill:#A299C0;" width="11" height="11"/>
				<rect x="-29.5" y="76" style="fill:#B9B2D0;" width="11" height="11"/>
				<rect x="14.167" y="32" style="fill:#454058;" width="11" height="11"/>
				<rect x="25.167" y="21" style="fill:#23202C;" width="11" height="11"/>
			</g>
			<g>
				<rect x="435" y="367.625" style="fill:#686084;" width="11" height="11"/>
				<rect x="424" y="378.625" style="fill:#8B7FB0;" width="11" height="11"/>
				<rect x="413" y="389.625" style="fill:#A299C0;" width="11" height="11"/>
				<rect x="402.333" y="400.625" style="fill:#B9B2D0;" width="11" height="11"/>
				<rect x="446" y="356.625" style="fill:#454058;" width="11" height="11"/>
				<rect x="457" y="345.625" style="fill:#23202C;" width="11" height="11"/>
			</g>
			<g>
				<rect x="432.708" y="307.5" style="fill:#686084;" width="11" height="11"/>
				<rect x="421.708" y="318.5" style="fill:#8B7FB0;" width="11" height="11"/>
				<rect x="410.708" y="329.5" style="fill:#A299C0;" width="11" height="11"/>
				<rect x="400.042" y="340.5" style="fill:#B9B2D0;" width="11" height="11"/>
				<rect x="443.708" y="296.5" style="fill:#454058;" width="11" height="11"/>
				<rect x="454.708" y="285.5" style="fill:#23202C;" width="11" height="11"/>
			</g>
			<g>
				<rect x="330.5" y="450.125" style="fill:#686084;" width="11" height="11"/>
				<rect x="319.5" y="461.125" style="fill:#8B7FB0;" width="11" height="11"/>
				<rect x="308.5" y="472.125" style="fill:#A299C0;" width="11" height="11"/>
				<rect x="297.833" y="483.125" style="fill:#FC4F32;" width="11" height="11"/>
				<rect x="341.5" y="439.125" style="fill:#454058;" width="11" height="11"/>
				<rect x="352.5" y="428.125" style="fill:#23202C;" width="11" height="11"/>
			</g>
			<g>
				<rect x="473" y="444.625" style="fill:#686084;" width="11" height="11"/>
				<rect x="462" y="455.625" style="fill:#8B7FB0;" width="11" height="11"/>
				<rect x="451" y="466.625" style="fill:#A299C0;" width="11" height="11"/>
				<rect x="440.333" y="477.625" style="fill:#B9B2D0;" width="11" height="11"/>
				<rect x="484" y="433.625" style="fill:#454058;" width="11" height="11"/>
				<rect x="495" y="422.625" style="fill:#23202C;" width="11" height="11"/>
			</g>
			<g>
				<rect x="707.333" y="466.625" style="fill:#686084;" width="11" height="11"/>
				<rect x="696.333" y="477.625" style="fill:#8B7FB0;" width="11" height="11"/>
				<rect x="685.333" y="488.625" style="fill:#A299C0;" width="11" height="11"/>
				<rect x="674.667" y="499.625" style="fill:#B9B2D0;" width="11" height="11"/>
				<rect x="718.333" y="455.625" style="fill:#454058;" width="11" height="11"/>
				<rect x="729.333" y="444.625" style="fill:#23202C;" width="11" height="11"/>
			</g>
			<g>
				<rect x="615.167" y="483.125" style="fill:#686084;" width="11" height="11"/>
				<rect x="604.167" y="494.125" style="fill:#8B7FB0;" width="11" height="11"/>
				<rect x="593.167" y="505.125" style="fill:#A299C0;" width="11" height="11"/>
				<rect x="582.5" y="516.125" style="fill:#B9B2D0;" width="11" height="11"/>
				<rect x="626.167" y="472.125" style="fill:#454058;" width="11" height="11"/>
				<rect x="637.167" y="461.125" style="fill:#23202C;" width="11" height="11"/>
			</g>
			<g>
				<rect x="522.167" y="488.625" style="fill:#686084;" width="11" height="11"/>
				<rect x="511.167" y="499.625" style="fill:#8B7FB0;" width="11" height="11"/>
				<rect x="500.167" y="510.625" style="fill:#A299C0;" width="11" height="11"/>
				<rect x="489.5" y="521.625" style="fill:#B9B2D0;" width="11" height="11"/>
				<rect x="533.167" y="477.625" style="fill:#454058;" width="11" height="11"/>
				<rect x="544.167" y="466.625" style="fill:#23202C;" width="11" height="11"/>
			</g>
			<g>
				<rect x="369.167" y="483.125" style="fill:#686084;" width="11" height="11"/>
				<rect x="358.167" y="494.125" style="fill:#8B7FB0;" width="11" height="11"/>
				<rect x="347.167" y="505.125" style="fill:#A299C0;" width="11" height="11"/>
				<rect x="336.5" y="516.125" style="fill:#B9B2D0;" width="11" height="11"/>
				<rect x="380.167" y="472.125" style="fill:#454058;" width="11" height="11"/>
				<rect x="391.167" y="461.125" style="fill:#23202C;" width="11" height="11"/>
			</g>
			<g>
				<rect x="36" y="461.125" style="fill:#686084;" width="11" height="11"/>
				<rect x="25" y="472.125" style="fill:#8B7FB0;" width="11" height="11"/>
				<rect x="14" y="483.125" style="fill:#A299C0;" width="11" height="11"/>
				<rect x="3.333" y="494.125" style="fill:#B9B2D0;" width="11" height="11"/>
				<rect x="47" y="450.125" style="fill:#454058;" width="11" height="11"/>
				<rect x="58" y="439.125" style="fill:#23202C;" width="11" height="11"/>
			</g>
			<g>
				<rect x="216.333" y="477.625" style="fill:#686084;" width="11" height="11"/>
				<rect x="205.333" y="488.625" style="fill:#8B7FB0;" width="11" height="11"/>
				<rect x="194.333" y="499.625" style="fill:#A299C0;" width="11" height="11"/>
				<rect x="183.667" y="510.625" style="fill:#B9B2D0;" width="11" height="11"/>
				<rect x="227.333" y="466.625" style="fill:#454058;" width="11" height="11"/>
				<rect x="238.333" y="455.625" style="fill:#23202C;" width="11" height="11"/>
			</g>
			<g>
				<rect x="101.667" y="477.625" style="fill:#686084;" width="11" height="11"/>
				<rect x="90.667" y="488.625" style="fill:#8B7FB0;" width="11" height="11"/>
				<rect x="79.667" y="499.625" style="fill:#A299C0;" width="11" height="11"/>
				<rect x="69" y="510.625" style="fill:#B9B2D0;" width="11" height="11"/>
				<rect x="112.667" y="466.625" style="fill:#454058;" width="11" height="11"/>
				<rect x="123.667" y="455.625" style="fill:#23202C;" width="11" height="11"/>
			</g>
			<g>
				<rect x="484.167" y="216.5" style="fill:#686084;" width="11" height="11"/>
				<rect x="473.167" y="227.5" style="fill:#8B7FB0;" width="11" height="11"/>
				<rect x="462.167" y="238.5" style="fill:#A299C0;" width="11" height="11"/>
				<rect x="451.5" y="249.5" style="fill:#B9B2D0;" width="11" height="11"/>
				<rect x="495.167" y="205.5" style="fill:#454058;" width="11" height="11"/>
				<rect x="506.167" y="194.5" style="fill:#23202C;" width="11" height="11"/>
			</g>
			<g>
				<rect x="680" y="230.625" style="fill:#686084;" width="11" height="11"/>
				<rect x="669" y="241.625" style="fill:#8B7FB0;" width="11" height="11"/>
				<rect x="658" y="252.625" style="fill:#A299C0;" width="11" height="11"/>
				<rect x="647.333" y="263.625" style="fill:#B9B2D0;" width="11" height="11"/>
				<rect x="691" y="219.625" style="fill:#454058;" width="11" height="11"/>
				<rect x="702" y="208.625" style="fill:#23202C;" width="11" height="11"/>
			</g>
			<g>
				<rect x="506" y="351.125" style="fill:#686084;" width="11" height="11"/>
				<rect x="495" y="362.125" style="fill:#8B7FB0;" width="11" height="11"/>
				<rect x="484" y="373.125" style="fill:#A299C0;" width="11" height="11"/>
				<rect x="473.333" y="384.125" style="fill:#FC4F32;" width="11" height="11"/>
				<rect x="517" y="340.125" style="fill:#454058;" width="11" height="11"/>
				<rect x="528" y="329.125" style="fill:#23202C;" width="11" height="11"/>
			</g>
			<g>
				<rect x="527.833" y="258.125" style="fill:#686084;" width="11" height="11"/>
				<rect x="516.833" y="269.125" style="fill:#8B7FB0;" width="11" height="11"/>
				<rect x="505.833" y="280.125" style="fill:#A299C0;" width="11" height="11"/>
				<rect x="495.167" y="291.125" style="fill:#B9B2D0;" width="11" height="11"/>
				<rect x="538.833" y="247.125" style="fill:#454058;" width="11" height="11"/>
				<rect x="549.833" y="236.125" style="fill:#23202C;" width="11" height="11"/>
			</g>
			<g>
				<rect x="571.5" y="342.625" style="fill:#686084;" width="11" height="11"/>
				<rect x="560.5" y="353.625" style="fill:#8B7FB0;" width="11" height="11"/>
				<rect x="549.5" y="364.625" style="fill:#A299C0;" width="11" height="11"/>
				<rect x="538.833" y="375.625" style="fill:#B9B2D0;" width="11" height="11"/>
				<rect x="582.5" y="331.625" style="fill:#454058;" width="11" height="11"/>
				<rect x="593.5" y="320.625" style="fill:#23202C;" width="11" height="11"/>
			</g>
			<g>
				<rect x="593" y="386.625" style="fill:#686084;" width="11" height="11"/>
				<rect x="582" y="397.625" style="fill:#8B7FB0;" width="11" height="11"/>
				<rect x="571" y="408.625" style="fill:#A299C0;" width="11" height="11"/>
				<rect x="560.333" y="419.625" style="fill:#B9B2D0;" width="11" height="11"/>
				<rect x="604" y="375.625" style="fill:#454058;" width="11" height="11"/>
				<rect x="615" y="364.625" style="fill:#23202C;" width="11" height="11"/>
			</g>
			<g>
				<rect x="724" y="378.625" style="fill:#686084;" width="11" height="11"/>
				<rect x="713" y="389.625" style="fill:#8B7FB0;" width="11" height="11"/>
				<rect x="702" y="400.625" style="fill:#A299C0;" width="11" height="11"/>
				<rect x="691.333" y="411.625" style="fill:#B9B2D0;" width="11" height="11"/>
				<rect x="735" y="367.625" style="fill:#454058;" width="11" height="11"/>
				<rect x="746" y="356.625" style="fill:#23202C;" width="11" height="11"/>
			</g>
			<g>
				<rect x="653.667" y="395.125" style="fill:#686084;" width="11" height="11"/>
				<rect x="642.667" y="406.125" style="fill:#8B7FB0;" width="11" height="11"/>
				<rect x="631.667" y="417.125" style="fill:#A299C0;" width="11" height="11"/>
				<rect x="621" y="428.125" style="fill:#FC4F32;" width="11" height="11"/>
				<rect x="664.667" y="384.125" style="fill:#454058;" width="11" height="11"/>
				<rect x="675.667" y="373.125" style="fill:#23202C;" width="11" height="11"/>
			</g>
			<g>
				<rect x="749.833" y="287.625" style="fill:#686084;" width="11" height="11"/>
				<rect x="738.833" y="298.625" style="fill:#8B7FB0;" width="11" height="11"/>
				<rect x="727.833" y="309.625" style="fill:#A299C0;" width="11" height="11"/>
				<rect x="717.167" y="320.625" style="fill:#FC4F32;" width="11" height="11"/>
				<rect x="760.833" y="276.625" style="fill:#454058;" width="11" height="11"/>
				<rect x="771.833" y="265.625" style="fill:#23202C;" width="11" height="11"/>
			</g>
			<g>
				<rect x="680.5" y="296.5" style="fill:#686084;" width="11" height="11"/>
				<rect x="669.5" y="307.5" style="fill:#8B7FB0;" width="11" height="11"/>
				<rect x="658.5" y="318.5" style="fill:#A299C0;" width="11" height="11"/>
				<rect x="647.833" y="329.5" style="fill:#B9B2D0;" width="11" height="11"/>
				<rect x="691.5" y="285.5" style="fill:#454058;" width="11" height="11"/>
				<rect x="702.5" y="274.5" style="fill:#23202C;" width="11" height="11"/>
			</g>
			<g>
				<rect x="766.167" y="200" style="fill:#686084;" width="11" height="11"/>
				<rect x="755.167" y="211" style="fill:#8B7FB0;" width="11" height="11"/>
				<rect x="744.167" y="222" style="fill:#A299C0;" width="11" height="11"/>
				<rect x="733.5" y="233" style="fill:#B9B2D0;" width="11" height="11"/>
				<rect x="777.167" y="189" style="fill:#454058;" width="11" height="11"/>
				<rect x="788.167" y="178" style="fill:#23202C;" width="11" height="11"/>
			</g>
			<g>
				<rect x="593.167" y="252.208" style="fill:#686084;" width="11" height="11"/>
				<rect x="582.167" y="263.208" style="fill:#8B7FB0;" width="11" height="11"/>
				<rect x="571.167" y="274.208" style="fill:#A299C0;" width="11" height="11"/>
				<rect x="560.5" y="285.208" style="fill:#B9B2D0;" width="11" height="11"/>
				<rect x="604.167" y="241.208" style="fill:#454058;" width="11" height="11"/>
				<rect x="615.167" y="230.208" style="fill:#23202C;" width="11" height="11"/>
			</g>
			<g>
				<rect x="391" y="276.625" style="fill:#686084;" width="11" height="11"/>
				<rect x="380" y="287.625" style="fill:#8B7FB0;" width="11" height="11"/>
				<rect x="369" y="298.625" style="fill:#A299C0;" width="11" height="11"/>
				<rect x="358.333" y="309.625" style="fill:#FC4F32;" width="11" height="11"/>
				<rect x="402" y="265.625" style="fill:#454058;" width="11" height="11"/>
				<rect x="413" y="254.625" style="fill:#23202C;" width="11" height="11"/>
			</g>
			<g>
				<rect x="14.333" y="389.625" style="fill:#686084;" width="11" height="11"/>
				<rect x="3.333" y="400.625" style="fill:#8B7FB0;" width="11" height="11"/>
				<rect x="-7.667" y="411.625" style="fill:#A299C0;" width="11" height="11"/>
				<rect x="-18.333" y="422.625" style="fill:#B9B2D0;" width="11" height="11"/>
				<rect x="25.333" y="378.625" style="fill:#454058;" width="11" height="11"/>
				<rect x="36.333" y="367.625" style="fill:#23202C;" width="11" height="11"/>
			</g>
			<g>
				<rect x="44.875" y="307.5" style="fill:#686084;" width="11" height="11"/>
				<rect x="33.875" y="318.5" style="fill:#8B7FB0;" width="11" height="11"/>
				<rect x="22.875" y="329.5" style="fill:#A299C0;" width="11" height="11"/>
				<rect x="12.208" y="340.5" style="fill:#B9B2D0;" width="11" height="11"/>
				<rect x="55.875" y="296.5" style="fill:#454058;" width="11" height="11"/>
				<rect x="66.875" y="285.5" style="fill:#23202C;" width="11" height="11"/>
			</g>
			<g>
				<rect x="96.333" y="216.5" style="fill:#686084;" width="11" height="11"/>
				<rect x="85.333" y="227.5" style="fill:#8B7FB0;" width="11" height="11"/>
				<rect x="74.333" y="238.5" style="fill:#A299C0;" width="11" height="11"/>
				<rect x="63.667" y="249.5" style="fill:#B9B2D0;" width="11" height="11"/>
				<rect x="107.333" y="205.5" style="fill:#454058;" width="11" height="11"/>
				<rect x="118.333" y="194.5" style="fill:#23202C;" width="11" height="11"/>
			</g>
			<g>
				<rect x="23.042" y="214.125" style="fill:#686084;" width="11" height="11"/>
				<rect x="12.042" y="225.125" style="fill:#8B7FB0;" width="11" height="11"/>
				<rect x="1.042" y="236.125" style="fill:#A299C0;" width="11" height="11"/>
				<rect x="-9.625" y="247.125" style="fill:#B9B2D0;" width="11" height="11"/>
				<rect x="34.042" y="203.125" style="fill:#454058;" width="11" height="11"/>
				<rect x="45.042" y="192.125" style="fill:#23202C;" width="11" height="11"/>
			</g>
			<g>
				<rect x="292.167" y="230.625" style="fill:#686084;" width="11" height="11"/>
				<rect x="281.167" y="241.625" style="fill:#8B7FB0;" width="11" height="11"/>
				<rect x="270.167" y="252.625" style="fill:#A299C0;" width="11" height="11"/>
				<rect x="259.5" y="263.625" style="fill:#B9B2D0;" width="11" height="11"/>
				<rect x="303.167" y="219.625" style="fill:#454058;" width="11" height="11"/>
				<rect x="314.167" y="208.625" style="fill:#23202C;" width="11" height="11"/>
			</g>
			<g>
				<rect x="101.5" y="351.125" style="fill:#686084;" width="11" height="11"/>
				<rect x="90.5" y="362.125" style="fill:#8B7FB0;" width="11" height="11"/>
				<rect x="79.5" y="373.125" style="fill:#A299C0;" width="11" height="11"/>
				<rect x="68.833" y="384.125" style="fill:#B9B2D0;" width="11" height="11"/>
				<rect x="112.5" y="340.125" style="fill:#454058;" width="11" height="11"/>
				<rect x="123.5" y="329.125" style="fill:#23202C;" width="11" height="11"/>
			</g>
			<g>
				<rect x="161.5" y="247.125" style="fill:#686084;" width="11" height="11"/>
				<rect x="150.5" y="258.125" style="fill:#8B7FB0;" width="11" height="11"/>
				<rect x="139.5" y="269.125" style="fill:#A299C0;" width="11" height="11"/>
				<rect x="128.833" y="280.125" style="fill:#FC4F32;" width="11" height="11"/>
				<rect x="172.5" y="236.125" style="fill:#454058;" width="11" height="11"/>
				<rect x="183.5" y="225.125" style="fill:#23202C;" width="11" height="11"/>
			</g>
			<g>
				<rect x="156.333" y="359.125" style="fill:#686084;" width="11" height="11"/>
				<rect x="145.333" y="370.125" style="fill:#8B7FB0;" width="11" height="11"/>
				<rect x="134.333" y="381.125" style="fill:#A299C0;" width="11" height="11"/>
				<rect x="123.667" y="392.125" style="fill:#B9B2D0;" width="11" height="11"/>
				<rect x="167.333" y="348.125" style="fill:#454058;" width="11" height="11"/>
				<rect x="178.333" y="337.125" style="fill:#23202C;" width="11" height="11"/>
			</g>
			<g>
				<rect x="200" y="384.125" style="fill:#686084;" width="11" height="11"/>
				<rect x="189" y="395.125" style="fill:#8B7FB0;" width="11" height="11"/>
				<rect x="178" y="406.125" style="fill:#A299C0;" width="11" height="11"/>
				<rect x="167.333" y="417.125" style="fill:#FC4F32;" width="11" height="11"/>
				<rect x="211" y="373.125" style="fill:#454058;" width="11" height="11"/>
				<rect x="222" y="362.125" style="fill:#23202C;" width="11" height="11"/>
			</g>
			<g>
				<rect x="336.167" y="378.625" style="fill:#686084;" width="11" height="11"/>
				<rect x="325.167" y="389.625" style="fill:#8B7FB0;" width="11" height="11"/>
				<rect x="314.167" y="400.625" style="fill:#A299C0;" width="11" height="11"/>
				<rect x="303.5" y="411.625" style="fill:#B9B2D0;" width="11" height="11"/>
				<rect x="347.167" y="367.625" style="fill:#454058;" width="11" height="11"/>
				<rect x="358.167" y="356.625" style="fill:#23202C;" width="11" height="11"/>
			</g>
			<g>
				<rect x="271.167" y="378.625" style="fill:#686084;" width="11" height="11"/>
				<rect x="260.167" y="389.625" style="fill:#8B7FB0;" width="11" height="11"/>
				<rect x="249.167" y="400.625" style="fill:#A299C0;" width="11" height="11"/>
				<rect x="238.5" y="411.625" style="fill:#B9B2D0;" width="11" height="11"/>
				<rect x="282.167" y="367.625" style="fill:#454058;" width="11" height="11"/>
				<rect x="293.167" y="356.625" style="fill:#23202C;" width="11" height="11"/>
			</g>
			<g>
				<rect x="385.333" y="230.625" style="fill:#686084;" width="11" height="11"/>
				<rect x="374.333" y="241.625" style="fill:#8B7FB0;" width="11" height="11"/>
				<rect x="363.333" y="252.625" style="fill:#A299C0;" width="11" height="11"/>
				<rect x="352.667" y="263.625" style="fill:#B9B2D0;" width="11" height="11"/>
				<rect x="396.333" y="219.625" style="fill:#454058;" width="11" height="11"/>
				<rect x="407.333" y="208.625" style="fill:#23202C;" width="11" height="11"/>
			</g>
			<g>
				<rect x="292.667" y="296.5" style="fill:#686084;" width="11" height="11"/>
				<rect x="281.667" y="307.5" style="fill:#8B7FB0;" width="11" height="11"/>
				<rect x="270.667" y="318.5" style="fill:#A299C0;" width="11" height="11"/>
				<rect x="260" y="329.5" style="fill:#B9B2D0;" width="11" height="11"/>
				<rect x="303.667" y="285.5" style="fill:#454058;" width="11" height="11"/>
				<rect x="314.667" y="274.5" style="fill:#23202C;" width="11" height="11"/>
			</g>
			<g>
				<rect x="211" y="258.125" style="fill:#686084;" width="11" height="11"/>
				<rect x="200" y="269.125" style="fill:#8B7FB0;" width="11" height="11"/>
				<rect x="189" y="280.125" style="fill:#A299C0;" width="11" height="11"/>
				<rect x="178.333" y="291.125" style="fill:#B9B2D0;" width="11" height="11"/>
				<rect x="222" y="247.125" style="fill:#454058;" width="11" height="11"/>
				<rect x="233" y="236.125" style="fill:#23202C;" width="11" height="11"/>
			</g>
			<g>
				<rect x="3.167" y="276.625" style="fill:#686084;" width="11" height="11"/>
				<rect x="-7.833" y="287.625" style="fill:#8B7FB0;" width="11" height="11"/>
				<rect x="-18.833" y="298.625" style="fill:#A299C0;" width="11" height="11"/>
				<rect x="-29.5" y="309.625" style="fill:#B9B2D0;" width="11" height="11"/>
				<rect x="14.167" y="265.625" style="fill:#454058;" width="11" height="11"/>
				<rect x="25.167" y="254.625" style="fill:#23202C;" width="11" height="11"/>
			</g>
		</g>
	</g>
</g>
</svg>
